<?xml version="1.0" encoding="UTF-8" standalone="no"?>
<!-- Created with Inkscape (http://www.inkscape.org/) -->

<svg
   width="132mm"
   height="279mm"
   viewBox="0 0 132 279"
   version="1.1"
   id="svg236"
   inkscape:version="1.1.2 (0a00cf5339, 2022-02-04)"
   sodipodi:docname="flower_arrow.svg"
   xmlns:inkscape="http://www.inkscape.org/namespaces/inkscape"
   xmlns:sodipodi="http://sodipodi.sourceforge.net/DTD/sodipodi-0.dtd"
   xmlns="http://www.w3.org/2000/svg"
   xmlns:svg="http://www.w3.org/2000/svg">
  <sodipodi:namedview
     id="namedview238"
     pagecolor="#ffffff"
     bordercolor="#666666"
     borderopacity="1.0"
     inkscape:pageshadow="2"
     inkscape:pageopacity="0.0"
     inkscape:pagecheckerboard="0"
     inkscape:document-units="mm"
     showgrid="false"
     width="209mm"
     inkscape:zoom="0.75187991"
     inkscape:cx="96.424973"
     inkscape:cy="668.32481"
     inkscape:window-width="1868"
     inkscape:window-height="1016"
     inkscape:window-x="52"
     inkscape:window-y="27"
     inkscape:window-maximized="1"
     inkscape:current-layer="layer1" />
  <defs
     id="defs233" />
  <g
     inkscape:label="Calque 1"
     inkscape:groupmode="layer"
     id="layer1">
    <path
       fill="white"
       d="m 58.222867,273.39996 c 3.886122,-5.63738 7.781397,-11.27055 11.674637,-16.90458 1.03467,-1.49821 2.06934,-2.99642 3.10298,-4.49464 0.50614,-0.73443 0.58389,-1.48412 -0.068,-2.17203 -2.1041,-2.2206 -4.35581,-4.31798 -7.348659,-5.77159 -0.310286,-0.15109 -0.606285,-0.32309 -0.969444,-0.51694 1.410925,-1.07038 1.912298,-2.39856 1.992477,-3.8552 0.175757,-3.17241 -2.07499,-5.16916 -5.189473,-5.64247 -0.671534,-0.10171 -1.362444,-0.12041 -2.044173,-0.1819 -0.234023,-0.0209 -0.46601,-0.0572 -0.753959,-0.0925 0.0036,-6.51854 0.02115,-38.56363 0.025,-45.09559 0.177064,-0.002 0.354091,-0.004 0.530148,-0.004 0.09957,0.2625 0.174757,0.48563 0.267212,0.7037 0.598562,1.40993 1.177779,2.83412 2.35852,4.00275 1.016998,1.00756 1.923451,1.35424 2.902421,1.21037 0.01615,0.0612 0.03038,0.12244 0.04973,0.182 0.841111,2.57318 2.313255,4.89082 4.353339,6.942 1.362771,1.3708 2.892481,2.62846 4.319381,3.95736 0.72108,0.672 1.43299,1.36077 2.05125,2.09731 0.6803,0.81035 0.57502,1.66486 -0.1611,2.43275 -0.36551,0.38059 -0.77173,0.75111 -1.23285,1.05032 -0.95481,0.62106 -1.97166,1.17584 -2.93461,1.7885 -0.68913,0.43834 -1.395554,0.8775 -1.97891,1.4031 -0.920328,0.82904 -1.110149,1.8353 -0.600931,2.87789 0.529548,1.08537 1.583441,1.61409 2.974381,1.71524 1.44691,0.10622 2.71194,-0.27321 3.82659,-1.00909 1.72131,-1.13651 2.74276,-2.64144 3.32982,-4.3696 0.39139,-1.15294 0.45818,-2.33117 0.45376,-3.54045 0.85133,0.65276 1.57137,1.36836 1.97078,2.23732 0.55187,1.19943 1.00299,2.42984 1.50804,3.6435 0.50505,1.21367 0.92258,2.46168 1.56096,3.62592 0.94334,1.71951 2.64611,2.83383 4.74698,3.53738 0.90953,0.30475 1.8619,0.41162 2.84591,0.35328 2.31197,-0.13752 3.76884,-1.48376 3.66204,-3.395 -0.0574,-1.029 -0.4731,-1.96002 -1.12284,-2.82823 -0.8775,-1.17355 -1.97284,-2.2021 -3.27281,-3.05379 -1.68446,-1.10257 -3.37808,-2.21437 -5.18881,-3.16603 -3.23794,-1.70193 -6.15825,-3.68803 -8.71813,-6.04046 -0.15765,-0.14431 -0.29902,-0.30032 -0.51257,-0.5151 1.07549,0.12035 2.02888,0.23388 2.98533,0.33321 1.11416,0.11614 2.23853,0.17947 3.3435,0.33838 2.03597,0.29344 3.84683,1.01198 5.48045,2.06086 1.47798,0.94819 2.97022,1.88464 4.50828,2.76325 1.75066,1.00028 3.71118,1.58218 5.85308,1.67691 2.097136,0.0922 3.954456,-0.41531 5.460106,-1.64499 1.10557,-0.90277 1.47758,-1.99618 1.06922,-3.25761 -0.33829,-1.04588 -0.96967,-1.96272 -1.87589,-2.72284 -3.855766,-3.23598 -8.400476,-4.52161 -13.809536,-3.18941 -1.28433,0.31652 -2.54123,0.70935 -3.79915,1.09212 -2.31228,0.70273 -4.66712,1.09013 -7.15391,0.88205 -2.12864,-0.17775 -4.079,-0.71435 -5.85511,-1.68949 -2.48717,-1.36536 -3.906581,-3.34921 -4.787535,-5.6398 -0.257059,-0.66931 -0.502946,-1.347 -0.753901,-2.03643 0.135375,-0.0712 0.27175,-0.13994 0.405106,-0.2137 0.985301,-0.54472 1.960425,-1.10203 2.94369,-1.64928 0.2219,-0.12317 0.46209,-0.22539 0.75421,-0.36535 -1e-4,0.1845 0.0142,0.28764 -0.002,0.38744 -0.36651,2.26412 0.21533,4.39777 1.31009,6.45949 0.31917,0.60141 0.82668,1.06787 1.64477,1.12604 0.47823,0.0337 0.99825,-0.0566 1.45929,-0.18815 3.1081,-0.88944 5.76371,-2.32331 7.78476,-4.49623 0.10796,-0.11655 0.22806,-0.22466 0.38278,-0.37556 0.25226,0.22568 0.46073,0.40942 0.66414,0.59567 1.51845,1.39015 3.25171,2.55899 5.26906,3.42436 1.08852,0.46668 2.23818,0.79669 3.48059,0.82902 1.49783,0.0391 2.42106,-0.53245 2.80229,-1.72229 0.0999,-0.3111 0.15706,-0.63143 0.24271,-0.9878 0.33775,0.12256 0.61244,0.25014 0.90647,0.32321 0.74373,0.18478 1.4854,0.42657 2.24852,0.49646 1.714496,0.15829 2.747666,-0.47027 3.121876,-1.85635 0.19579,-0.72533 0.28367,-1.47251 0.394,-2.21212 0.0889,-0.59957 0.13903,-1.20252 0.21168,-1.85829 0.21568,0.0781 0.33163,0.10916 0.43543,0.15867 1.50558,0.71758 3.14465,1.12744 4.83873,1.39811 1.10904,0.17652 2.23136,0.24488 3.35282,0.0592 1.41454,-0.23427 2.09673,-1.00136 1.87352,-2.17466 -0.0812,-0.42605 -0.29768,-0.83537 -0.46638,-1.24888 -0.11483,-0.28263 -0.25306,-0.55861 -0.41668,-0.91759 0.57799,-0.0442 1.0481,-0.0424 1.49587,-0.1227 0.97085,-0.17404 1.97625,-0.29778 2.88613,-0.60607 2.20953,-0.74972 2.8839,-2.11306 2.01795,-3.93317 -0.67181,-1.41248 -1.37722,-2.81658 -2.42563,-4.07909 -0.062,-0.0747 -0.0722,-0.17782 -0.1128,-0.28266 0.34497,-0.0787 0.64623,-0.14568 0.94543,-0.21519 1.86847,-0.43705 3.66174,-1.02676 5.36759,-1.79513 0.91196,-0.41057 1.67034,-0.96378 1.85094,-1.83503 0.11326,-0.54505 0.0841,-1.13293 -0.0227,-1.68226 -0.2496,-1.28485 -0.98873,-2.43151 -1.64645,-3.59659 -0.28567,-0.50496 -0.58759,-1.00321 -0.87122,-1.4872 0.91811,-0.4894 1.78834,-0.89748 2.57824,-1.3928 0.53746,-0.33692 1.05155,-0.74681 1.41915,-1.20875 0.86857,-1.09155 0.58226,-2.23385 -0.7361,-2.95387 -0.80261,-0.43806 -1.69177,-0.76713 -2.54326,-1.14567 -0.20756,-0.0923 -0.41506,-0.18548 -0.64802,-0.28957 0.17006,-0.27753 0.32997,-0.49885 0.44711,-0.7353 0.67437,-1.3541 1.39657,-2.69477 1.98039,-4.07491 0.25983,-0.61461 0.31717,-1.3098 0.32363,-1.96894 0.01,-0.89144 -0.58426,-1.50218 -1.61795,-1.78099 -0.50158,-0.13521 -1.02659,-0.21505 -1.5404,-0.32009 -0.23198,-0.0471 -0.46294,-0.0966 -0.72747,-0.1529 0.0215,-0.17863 0.0398,-0.30272 0.0511,-0.42767 0.0901,-1.02559 0.24841,-2.05032 0.25098,-3.07594 0.004,-1.35101 -0.71199,-2.39367 -2.30418,-2.89828 -0.86986,-0.27623 -1.77029,-0.49041 -2.66663,-0.70376 -0.44258,-0.10497 -0.9086,-0.14542 -1.43768,-0.22611 0.10703,-0.30942 0.20587,-0.57438 0.28944,-0.8427 0.22525,-0.72196 0.50347,-1.43636 0.6504,-2.16841 0.24695,-1.23435 -0.56353,-2.19067 -2.03884,-2.46126 -0.51483,-0.0941 -1.05209,-0.10355 -1.57815,-0.1549 -0.19233,-0.0184 -0.38358,-0.0488 -0.65322,-0.0833 1.2239,-1.43357 1.97468,-2.95872 2.56166,-4.53258 0.93449,-2.50627 1.80081,-5.03017 2.67324,-7.55155 0.16102,-0.46705 0.26305,-0.9576 0.30098,-1.44146 0.0308,-0.4042 0.008,-0.83526 -0.13369,-1.21856 -0.35763,-0.96537 -1.28748,-1.35568 -2.4322,-1.41146 -4.0518,-0.19692 -8.10258,-0.41397 -12.15849,-0.53457 -1.26277,-0.0374 -2.55313,0.13993 -3.802796,0.33988 -0.93217,0.14894 -1.81865,0.49075 -2.77022,0.75958 -0.98789,-2.11871 -2.35541,-4.10086 -3.29541,-6.34199 0.3256,0.0848 0.52601,0.13939 0.72745,0.18982 1.19343,0.29816 2.37565,0.63489 3.58539,0.88357 1.76323,0.36211 3.553986,0.59759 5.380616,0.3945 1.83899,-0.20491 2.81624,-0.9006 3.23222,-2.3806 0.34767,-1.23514 0.82759,-2.42244 1.51405,-3.55599 0.12526,-0.20627 0.27802,-0.42339 0.30256,-0.64394 0.0511,-0.4478 0.39416,-0.66068 0.8074,-0.87269 1.36697,-0.70141 2.52036,-1.60165 3.50492,-2.64786 0.92754,-0.98586 1.63636,-2.06573 1.98809,-3.28998 0.34051,-1.18315 0.0918,-2.2659 -0.92524,-3.16024 -0.65804,-0.57889 -1.41177,-1.0857 -2.12784,-1.61848 -0.17902,-0.13341 -0.38047,-0.24504 -0.46791,-0.30127 0.0717,-0.88891 0.26344,-1.69055 0.17537,-2.47049 -0.24406,-2.183843 -0.4046,-4.361782 -0.10018,-6.549611 0.24213,-1.742546 -0.42863,-3.25566 -1.81586,-4.552677 -0.99059,-0.926203 -2.00866,-1.833966 -3.05829,-2.714065 -1.54496,-1.29456 -2.89855,-2.692201 -3.80121,-4.365571 -0.2023,-0.374937 -0.45954,-0.730606 -0.71882,-1.082082 -1.156086,-1.571999 -2.863046,-2.478341 -5.046556,-2.778546 -0.66747,-0.09166 -1.3482,-0.119588 -2.06351,-0.179429 -0.16807,-1.541435 -1.1453,-2.686512 -2.60299,-3.530703 -1.7649,-1.021255 -3.06464,-2.27631 -3.82789,-3.972273 -0.59657,-1.325235 -1.82958,-1.821319 -3.52596,-1.627399 -3.10984,0.356081 -5.84361,1.451121 -8.25917,3.066222 -0.63824,0.426614 -1.07716,1.056247 -1.60557,1.594439 -0.12015,0.122408 -0.2291,0.251473 -0.39607,0.436769 -0.28452,-0.669323 -0.0451,-1.215166 0.0681,-1.76358 0.0735,-0.354705 0.21306,-0.703516 0.24583,-1.059077 0.10034,-1.094352 -0.95855,-1.81847 -2.23778,-1.523761 -0.44575,0.102979 -0.9017,0.249571 -1.27831,0.46495 -1.153265,0.658717 -2.278053,1.350987 -3.395713,2.049974 -0.468237,0.292487 -0.892753,0.634493 -1.342687,0.958026 -0.375397,-0.149413 -0.709082,-0.286212 -1.047858,-0.414668 -1.232007,-0.464214 -2.507849,-0.779173 -3.876449,-0.805687 -0.749933,-0.01458 -1.424643,0.121078 -1.996684,0.431977 0.02115,-1.053293 0.04642,-23.387238 0.01461,-24.43971 -0.01577,-0.499818 0.173449,-0.865382 0.588832,-1.230861 4.373557,-3.853462 8.702367,-7.743003 13.107459,-11.572133 1.04655,-0.909499 1.50091,-1.869544 1.48938,-3.106501 -0.0607,-6.126095 -0.0635,-12.253005 -0.0854,-18.379087 -0.008,-2.136789 -0.007,-4.272739 -0.0158,-6.4095276 -0.003,-0.7623 -0.38796,-1.3553464 -1.24762,-1.6693106 -0.89424,-0.3265568 -1.71347,-0.1557935 -2.41792,0.3806591 -0.32067,0.2439042 -0.61285,0.5138409 -0.910121,0.7778933 -3.914669,3.4680418 -7.828085,6.9367538 -11.742512,10.4046258 -0.273827,0.242243 -0.552796,0.47948 -0.898934,0.778736 C 56.358997,15.63042 55.994884,15.319999 55.638912,15.004544 51.728327,11.533731 47.819772,8.061241 43.907153,4.5921006 43.610162,4.3286615 43.315232,4.0534899 42.968364,3.840352 41.669385,3.0398249 39.956539,3.570853 39.61494,4.8747777 39.54356,5.1481271 39.53425,5.4366191 39.53306,5.7175526 39.50498,13.929246 39.49245,22.140945 39.44314,30.352629 c -0.0069,1.044909 0.377474,1.869414 1.25014,2.635393 4.467958,3.922197 8.890108,7.879601 13.345848,11.811859 0.410894,0.362433 0.608103,0.71892 0.598666,1.224601 -0.03577,2.007627 -0.03,25.295083 -0.03231,27.302725 -1.9e-5,0.03775 -4.2e-5,0.07464 -6.1e-5,0.111537 -1.630929,-0.388893 -3.307778,-0.545507 -5.00809,-0.590591 -2.213157,-0.05785 -4.090811,0.414417 -5.118528,2.218725 -0.03973,0.06878 -0.101839,0.129128 -0.152759,0.194485 -0.587547,0.750337 -1.336787,1.332053 -2.32913,1.735053 -0.750109,0.304975 -1.45143,0.70892 -2.123248,1.123784 -1.661223,1.027515 -1.936808,2.557881 -0.685972,3.926128 0.485082,0.530188 1.086202,0.991648 1.666969,1.457298 1.029313,0.825582 2.087128,1.626857 3.124582,2.446572 0.240022,0.189635 0.442412,0.411086 0.637683,0.595656 -1.750159,-0.07027 -3.456552,-0.170712 -5.163994,-0.197337 -1.439835,-0.0225 -2.861309,-0.121014 -4.275606,-0.309381 -0.04723,-1.076798 -0.113839,-2.109156 -0.07153,-3.135603 0.119684,-2.957744 0.341092,-5.912933 0.475021,-8.870674 0.108146,-2.390845 0.291633,-4.785855 -0.06115,-7.173521 -0.425774,-2.88583 -1.884626,-5.311648 -4.742981,-7.095614 -1.944895,-1.213369 -4.129143,-2.018419 -6.487575,-2.497314 -0.569772,-0.115943 -1.174172,-0.169857 -1.762323,-0.165039 -1.389988,0.01109 -1.913282,0.500772 -1.838611,1.635443 0.01,0.154295 0.02154,0.308621 0.04757,0.461254 0.244406,1.426573 0.478705,2.853982 0.743502,4.27721 0.462629,2.486662 1.797521,4.585375 4.16041,6.2073 1.3803,0.947316 2.490838,2.091604 3.554549,3.269416 0.115915,0.128336 0.19114,0.281014 0.285711,0.422769 -0.07634,0.05281 -0.151682,0.10561 -0.228023,0.157559 -0.178988,-0.208874 -0.330477,-0.438718 -0.542016,-0.621621 -1.448311,-1.250912 -3.024897,-2.380281 -4.739947,-3.379714 -2.152458,-1.255375 -4.551567,-1.776219 -7.163712,-1.642185 -2.388276,0.122377 -4.313965,0.970333 -5.686535,2.600081 -0.90113,1.069734 -1.4034595,2.28889 -1.8071005,3.534918 -0.0958,0.296829 -0.160104,0.606255 -0.177565,0.912342 -0.04311,0.72874 0.365667,1.15491 1.2417135,1.307027 0.641001,0.110966 1.296275,0.170712 1.933196,0.29591 3.067602,0.600762 6.159871,0.765456 9.300202,0.494087 1.647501,-0.142789 3.305093,-0.116164 4.926865,0.26767 1.478316,0.349419 2.633889,1.026615 3.407635,2.138906 0.735107,1.056929 1.291095,2.170817 1.615042,3.357578 0.253867,0.92844 0.476201,1.862739 0.698528,2.79704 -0.629825,-0.0749 -1.263739,-0.124595 -1.893603,-0.132392 -1.671833,-0.02092 -2.843432,0.689947 -3.427215,1.989581 -0.203793,0.454452 -0.310901,0.940806 -0.442404,1.41541 -0.326285,1.176456 -0.545708,2.379783 -0.986946,3.525998 -0.450407,1.172215 -1.108369,2.291515 -1.684937,3.430139 -0.739556,1.459745 -1.232887,2.964873 -1.307032,4.554853 -0.03,0.64321 -0.07907,1.28556 -0.148605,1.92624 -0.06953,0.64403 -0.307748,0.80412 -1.094285,0.74344 -0.465002,-0.0354 -0.922855,-0.12615 -1.387854,-0.17074 -0.979854,-0.0952 -1.72996,0.20396 -2.133328,0.95689 -0.975828,1.81774 -2.513163,3.30319 -4.071862,4.78359 -1.308248,1.24234 -2.574786,2.50481 -3.581951,3.94685 -1.7902865,2.56213 -2.3941905,5.29914 -1.8625855,8.18249 0.436243,2.3617 1.025125,4.70668 1.631314,7.04413 0.3178235,1.22701 0.6926085,2.46411 1.2587465,3.62496 1.1587,2.37623 3.122632,4.13218 6.200322,4.89312 0.05188,0.0127 0.08949,0.0663 0.153566,0.11579 -9.2e-5,0.16183 0.0062,0.33963 -0.0013,0.51658 -0.05784,1.51787 -0.163488,3.03488 -0.167334,4.55277 -0.0054,2.07557 0.997138,3.80181 2.912455,5.14347 0.73541,0.51519 1.527828,0.97924 2.326365,1.4282 2.373223,1.33428 4.762737,2.64845 7.142071,3.97435 0.215639,0.12004 0.407891,0.27021 0.664219,0.44304 -1.82088,0.84883 -3.316246,1.88564 -4.581769,3.14643 -1.260431,1.25577 -2.282822,2.63659 -3.168902,4.08957 -2.515648,4.12587 -3.992526,8.52804 -5.103137,13.02762 -0.0673,0.2742 -0.06646,0.56436 -0.05338,0.84614 0.03308,0.72541 0.439881,1.30756 1.209989,1.63156 0.513749,0.21572 1.111984,0.3736 1.683836,0.39981 0.993112,0.0465 1.994427,-0.0269 2.992665,-0.0542 3.151427,-0.0861 6.302849,-0.17458 9.454272,-0.25727 0.110916,-0.003 0.223831,0.0387 0.386635,0.0698 -0.0795,0.20542 -0.138567,0.37564 -0.211947,0.54166 -0.550169,1.24262 -0.797133,2.53064 -0.924036,3.84553 -0.131029,1.3627 -0.04219,2.71123 0.166681,4.05057 -0.596416,0.23208 -1.1623,0.45158 -1.746471,0.61908 -1.3729,0.39196 -2.72619,0.28159 -3.932629,-0.41743 -0.686633,-0.39776 -1.343726,-0.84331 -1.940765,-1.32826 -0.999808,-0.81299 -1.91614,-1.69555 -2.915947,-2.50855 -0.819782,-0.667 -1.649731,-1.34491 -2.582528,-1.89455 -3.337518,-1.96697 -8.310783,-1.13274 -10.5520065,1.72273 -1.022352,1.30199 -0.756167,2.05013 0.946887,2.66547 0.08542,0.0311 0.174988,0.0546 0.260444,0.0865 2.4111085,0.90996 4.8741565,1.73776 7.2211005,2.75001 3.656226,1.57713 7.517772,1.73037 11.488461,1.40229 0.415183,-0.0342 0.823281,-0.13385 1.233395,-0.20415 0.03154,0.0461 0.06407,0.0914 0.09557,0.13756 -1.036254,0.68895 -2.079628,1.37035 -3.105714,2.06769 -1.030151,0.70069 -2.200616,1.19168 -3.48085,1.45452 -1.235456,0.25363 -2.49733,0.44102 -3.761211,0.57304 -1.821531,0.19052 -3.670456,0.2284 -5.480822,0.46924 -3.553572,0.47332 -6.0698575,2.07077 -7.2314615,4.9384 -0.363782,0.89801 -0.615619,1.83297 -0.82575,2.76543 -0.181603,0.80668 -0.299056,1.63183 -0.320862,2.45115 -0.02808,1.05748 0.77045,1.5534 2.01504,1.33415 0.334823,-0.0586 0.663531,-0.14735 0.986147,-0.24196 0.88135,-0.25966 1.7637145,-0.51928 2.6369345,-0.79737 3.463355,-1.10064 6.377564,-2.7969 8.527026,-5.32954 0.626206,-0.73775 1.247332,-1.48471 1.955929,-2.16708 0.645474,-0.62033 1.392668,-1.17186 2.124598,-1.72674 0.232061,-0.17601 0.557769,-0.26729 0.964894,-0.45501 -0.07746,0.21886 -0.08561,0.29432 -0.128414,0.35469 -1.58049,2.24521 -2.33891,4.69703 -2.68019,7.25215 -0.376012,2.8109 -1.641205,5.31368 -3.800666,7.51423 -0.628187,0.63963 -1.242133,1.29268 -1.799117,1.97509 -0.679172,0.83082 -1.35326,1.67086 -1.921543,2.55454 -1.389146,2.15891 -1.552184,4.41304 -0.59289,6.72378 1.178799,2.83747 3.26145,5.19057 5.786878,7.30231 0.2156,0.18041 0.480105,0.3331 0.74969,0.45648 0.843337,0.38524 1.601515,0.21192 2.05268,-0.48478 0.248521,-0.38399 0.439008,-0.79568 0.628499,-1.20318 0.800759,-1.72891 1.611687,-3.45532 2.379888,-5.19431 0.597039,-1.35246 1.187971,-2.70828 1.69039,-4.08593 0.913117,-2.50376 1.166884,-5.0564 0.456018,-7.62366 -0.311786,-1.12386 -0.779242,-2.22011 -1.214146,-3.31885 -0.853556,-2.1564 -1.308213,-4.33948 -0.822601,-6.60775 0.226485,-1.05992 0.490609,-2.10809 1.044712,-3.09661 0.0508,0.12498 0.07007,0.2466 0.04765,0.3623 -0.260213,1.35343 -0.28948,2.70862 -0.190525,4.07727 0.168642,2.33812 1.208485,4.35202 3.200965,6.00568 0.854352,0.70978 1.800329,1.35168 2.760562,1.96591 2.292759,1.46843 4.620143,2.89998 6.929194,4.34997 1.353898,0.85003 2.596427,0.69032 3.44676,-0.52703 1.165007,-1.66924 1.541481,-3.47128 1.011364,-5.3592 -0.535201,-1.90469 -1.929477,-3.33757 -3.894829,-4.3656 -1.366185,-0.71502 -2.827068,-1.30763 -4.246204,-1.95389 -1.010176,-0.45994 -2.067198,-0.8612 -3.024428,-1.38653 -2.265411,-1.24284 -3.021566,-2.88597 -2.427115,-5.07872 0.410913,-1.51438 1.399668,-2.79541 2.469808,-4.03615 0.17718,-0.20457 0.404192,-0.39568 0.620015,-0.58764 0.307902,0.79847 0.683945,1.58021 1.155673,2.33262 0.327401,0.52258 0.705613,1.03763 1.159193,1.48898 0.899026,0.89346 2.240124,0.96692 3.31305,0.21087 0.376666,-0.26488 0.689217,-0.59432 1.02009,-0.90196 1.326562,-1.23227 2.616506,-2.49222 3.979681,-3.69595 2.180671,-1.92464 4.332856,-3.856 5.266406,-6.50482 0.691817,0.2166 1.3287,0.41644 1.986946,0.62215 -0.568318,0.9382 -1.158988,1.81433 -1.640797,2.73075 -1.085859,2.06258 -0.225792,3.43739 2.442038,3.85267 0.778368,0.12105 1.568967,0.19937 2.362627,0.25835 -0.0036,6.57222 -0.02154,38.6693 -0.025,45.24738 -0.814063,0.0341 -1.558918,0.0388 -2.296682,0.0998 -2.191917,0.18114 -4.046295,0.88238 -5.221448,2.49459 -1.639513,2.25022 -0.955541,5.61667 0.823446,6.913 0.08238,0.0604 0.118992,0.16273 0.188103,0.26085 -0.162835,0.0905 -0.287057,0.16932 -0.421402,0.23046 -3.152173,1.44543 -5.521219,3.59055 -7.728546,5.87997 -0.598666,0.62035 -0.72115,1.29706 -0.332823,2.02429 0.12503,0.23483 0.281596,0.45883 0.435131,0.6828 4.82851,7.00088 9.662104,14.00009 14.485518,21.00348 0.435166,0.63248 1.032251,1.03272 1.929731,1.04564 0.938177,0.0146 1.569287,-0.38769 2.023478,-1.04751 z M 69.738473,23.530184 c 0.015,2.107442 0.02231,4.214881 0.0433,6.321483 0.0038,0.371507 -0.06042,0.688479 -0.394334,0.98271 -3.345324,2.945626 -6.676412,5.902166 -10.012579,8.854505 -0.08146,0.07211 -0.181218,0.129921 -0.356322,0.254801 -0.04161,-0.225609 -0.09542,-0.386636 -0.09634,-0.547649 -0.0018,-2.184593 0.01038,-4.369172 5.73e-4,-6.552925 -0.0018,-0.354737 0.106185,-0.62976 0.408537,-0.896327 3.301551,-2.908748 6.588856,-5.828403 9.882269,-8.743862 0.100763,-0.08888 0.216831,-0.167638 0.476421,-0.367134 0.02423,0.343841 0.04653,0.519121 0.04846,0.694391 z m -0.439262,-13.45572 c 0.06111,-0.05449 0.144528,-0.09218 0.34913,-0.22044 0.02654,0.285144 0.05469,0.457065 0.05461,0.628979 0.0069,2.135952 0.0026,4.272737 0.01884,6.408693 0.0028,0.379891 -0.09907,0.680917 -0.428932,0.970954 -3.330049,2.930539 -6.643829,5.874505 -9.96269,8.813437 -0.06211,0.05531 -0.141491,0.09807 -0.292172,0.200285 -0.03654,-0.206307 -0.08934,-0.364833 -0.0903,-0.52333 -0.0018,-2.187942 0.0034,-4.375882 0.0046,-6.563821 1.73e-4,-0.3103 0.01961,-0.585349 0.31794,-0.846885 3.353466,-2.94898 6.687607,-5.911385 10.028863,-8.867921 z M 43.780085,17.07652 c 0.02038,-2.317082 0.01807,-4.633333 0.0273,-6.950419 3.9e-5,-0.0671 0.04588,-0.134148 0.100878,-0.285096 0.264443,0.211445 0.487201,0.374205 0.688579,0.553744 3.168137,2.809706 6.327109,5.626117 9.50848,8.424929 0.391573,0.344817 0.566403,0.682844 0.559019,1.159176 -0.03269,2.084779 -0.01961,4.170415 -0.02192,6.25521 -1.08e-4,0.200444 -2.19e-4,0.401695 -4.04e-4,0.730432 -0.244136,-0.155245 -0.392649,-0.224912 -0.504526,-0.323897 -3.318661,-2.940587 -6.632238,-5.883687 -9.950899,-8.824277 -0.24106,-0.21309 -0.409841,-0.421974 -0.406614,-0.739808 z m 10.246547,22.531526 c -3.232213,-2.865919 -6.455265,-5.738544 -9.701728,-8.593568 -0.414959,-0.36495 -0.593851,-0.731491 -0.585432,-1.231302 0.03577,-2.058783 0.02577,-4.118422 0.035,-6.178051 0.0011,-0.219714 0.02692,-0.438585 0.04827,-0.774863 0.260367,0.201362 0.41906,0.311283 0.559411,0.43545 3.27493,2.903671 6.545787,5.809859 9.822751,8.711016 0.263443,0.233217 0.442385,0.458886 0.439139,0.807751 -0.02038,2.3674 -0.01269,4.734806 -0.01423,7.2909 C 54.327711,39.84213 54.167011,39.73305 54.026659,39.608046 Z M 74.243674,197.32194 c -1.07946,-2.13217 -1.6858,-4.19622 -1.13917,-6.40408 0.12338,-0.50061 0.39022,-0.88879 0.95105,-1.167 2.68709,-1.33154 4.94294,-3.03727 6.58549,-5.26066 0.0642,-0.0872 0.0998,-0.18951 0.24841,-0.23639 -0.47783,2.91149 -0.0937,5.63797 1.76395,8.23753 -2.00698,2.49496 -4.97798,3.83227 -8.40973,4.83061 z m 20.23715,-1.76774 c -1.7e-4,0.29854 -0.0746,0.59706 -0.12772,0.987 -0.54132,-0.0329 -1.00941,-0.0162 -1.44996,-0.10035 -0.54332,-0.10418 -1.08356,-0.25702 -1.5902,-0.45093 -3.07034,-1.1727 -5.43006,-2.98918 -7.11177,-5.40502 -1.29025,-1.85382 -1.48351,-3.84225 -1.05804,-5.90675 0.38873,-1.88842 1.14781,-3.68276 2.02999,-5.44519 0.17825,-0.35551 0.36263,-0.71017 0.58267,-1.14114 0.49859,0.0298 1.02058,0.054 1.54053,0.0937 0.18518,0.0143 0.37032,0.10748 0.54638,0.0933 0.95145,-0.076 1.54139,0.38299 2.1547,0.88555 2.1898,1.79378 3.31501,4.0115 3.92521,6.45545 0.40511,1.62371 0.48866,3.26826 0.52743,4.91447 0.0408,1.67221 0.0338,3.34608 0.0308,5.01995 z m 6.720756,-1.46253 c -0.15003,0.80585 -0.46456,0.99526 -1.461746,0.96805 -1.20986,-0.0332 -2.30659,-0.37908 -3.39205,-0.88853 5.4e-4,-0.96105 0.0428,-1.91118 -0.008,-2.85716 -0.0856,-1.6152 -0.12333,-3.24045 -0.37382,-4.84062 -0.37716,-2.41367 -1.20929,-4.72772 -2.95125,-6.7444 -0.57354,-0.66439 -1.25904,-1.26258 -1.9628,-1.95974 1.01777,-0.38454 2.03757,-0.76907 3.16832,-1.19634 0.22433,0.97539 0.43242,1.89794 0.64764,2.8205 0.45478,1.94407 0.97166,3.86972 2.07675,5.65471 1.08781,1.7573 2.47795,3.32687 4.220276,4.67602 0.4038,0.31296 0.58779,0.63589 0.52141,1.08033 -0.16342,1.09516 -0.2821,2.19622 -0.48516,3.28718 z m 10.61338,-4.14212 c 0.10061,0.21053 0.17479,0.43028 0.29467,0.73055 -1.09094,0.22183 -2.04736,0.0621 -2.98342,-0.0984 -6.17701,-1.05814 -9.909636,-4.31755 -11.771146,-9.12099 -0.6503,-1.67831 -0.85282,-3.47134 -1.38406,-5.18567 -0.24986,-0.80684 0.01,-1.26462 0.76516,-1.74906 0.48554,-0.31175 0.8458,-0.39383 1.41453,-0.23426 3.542576,0.99593 6.311376,2.79915 8.187296,5.45491 1.01677,1.4386 1.89713,2.95179 2.70524,4.48005 0.99719,1.88054 1.85697,3.81135 2.77171,5.7229 z M 58.222017,168.30241 c 1.7657,-0.422 3.507014,-0.91361 5.26356,-1.36161 0.702217,-0.17921 1.41764,-0.32234 2.146301,-0.48643 0.228484,0.84038 0.428536,1.5776 0.631633,2.32571 -4.53575,0.90065 -9.024672,1.76357 -13.493283,2.69443 -1.62421,0.33819 -3.198647,0.83657 -4.946052,1.30134 -0.596985,-0.57803 -1.287541,-1.23408 -1.961813,-1.90187 -0.395615,-0.39178 -0.375013,-0.81947 -3.54e-4,-1.20257 0.681133,-0.6958 1.39481,-1.36977 2.074905,-2.03286 0.988928,0.2528 1.840487,0.49463 2.707339,0.68868 2.525266,0.56618 5.062032,0.57635 7.577764,-0.0247 z m -9.828338,-2.28725 c -1.599308,-0.52976 -3.095754,-1.21883 -4.486288,-2.05628 -0.729345,-0.43971 -0.756728,-0.60577 -0.199794,-1.17917 0.833854,-0.85843 1.89348,-1.48615 3.090389,-1.95868 2.759196,-1.08916 5.694049,-1.47465 8.725346,-1.46262 3.467828,0.0146 6.817325,0.56192 10.072972,1.52504 0.199409,0.0588 0.387611,0.1444 0.624652,0.23419 -0.231599,1.12953 -0.458118,2.23642 -0.675449,3.29299 -2.691832,0.716 -5.356188,1.42027 -8.017495,2.13209 -3.132505,0.83995 -6.159529,0.45725 -9.134322,-0.52757 z m 21.094369,2.94979 c -0.26079,-1.3184 -0.462541,-2.64516 -0.705955,-4.09186 0.133452,-0.2599 0.24456,-0.64732 0.504215,-0.94828 0.676096,-0.78469 1.203646,-1.60885 1.521636,-2.54294 0.13657,-0.40081 0.46343,-0.78981 0.81161,-1.10415 0.64545,-0.58427 1.14441,-1.21892 1.3748,-1.987 0.42001,-1.39613 1.48689,-2.27963 3.13151,-2.72012 1.14594,-0.30732 2.13733,-0.82188 3.02094,-1.50166 1.01392,-0.77953 2.20981,-1.23445 3.62118,-1.27837 0.40194,-0.0127 0.80798,-0.0752 1.19979,-0.1547 1.23749,-0.2511 2.48006,-0.49302 3.70028,-0.7953 0.58721,-0.14485 1.02166,-0.0776 1.42747,0.28736 0.82178,0.73745 1.81362,1.22505 2.99995,1.49302 0.40697,0.0916 0.82604,0.38775 1.06907,0.68471 0.63453,0.77679 1.42587,1.35741 2.49209,1.67648 0.66029,0.19734 1.09662,0.55725 1.32934,1.10915 0.32317,0.76578 0.86006,1.42513 1.56288,1.99062 0.51058,0.41195 0.77895,0.89593 0.86919,1.49138 0.0912,0.60803 0.27302,1.21525 0.50676,1.79818 0.506046,1.26398 0.318126,2.49835 -0.21775,3.69904 -0.30564,0.68503 -0.55431,1.35834 -0.56387,2.09129 -0.0104,0.80171 -0.33659,1.49092 -1.01872,2.09279 -0.41842,0.36968 -0.73412,0.8266 -1.04268,1.26927 -0.36867,0.52987 -0.82983,0.94313 -1.51581,1.20955 -0.5323,0.20694 -1.03512,0.47762 -1.51251,0.76341 -0.67181,0.40228 -1.39646,0.67372 -2.21668,0.77489 -0.18418,0.0225 -0.37143,0.0519 -0.54648,0.10212 -1.88074,0.53936 -3.75946,1.08208 -5.63817,1.62647 -0.32363,0.0938 -0.64422,0.19093 -0.9648,0.29065 -0.82335,0.25546 -1.56511,0.18136 -2.27816,-0.28181 -0.83816,-0.54458 -1.85055,-0.6892 -2.89248,-0.78687 -0.60439,-0.0572 -1.1904,-0.25454 -1.77847,-0.40656 -0.20548,-0.0529 -0.38043,-0.19217 -0.58699,-0.2367 -1.64622,-0.35116 -2.95229,-1.19781 -4.26856,-2.01344 -0.4608,-0.28532 -0.83606,-0.67539 -1.20116,-1.05039 -0.58374,-0.59899 -1.13288,-1.22145 -1.68202,-1.84223 -0.197291,-0.22146 -0.461711,-0.4547 -0.511435,-0.70798 z M 51.156871,157.72232 c -0.390365,-0.68446 -0.769547,-1.34794 -1.219888,-2.13809 2.289567,-0.1174 4.217125,-0.66511 5.580411,-2.07095 1.566252,1.42875 3.063337,2.79457 4.658064,4.24849 -3.024024,-0.2871 -5.981972,-0.44504 -9.018587,-0.0395 z m 6.517957,-4.58896 c 0.85061,0.12947 1.531294,0.23622 2.214019,0.33544 1.042912,0.15049 2.083786,0.31109 3.129767,0.44061 2.624098,0.32553 5.08375,-0.0618 7.36167,-1.19562 0.0774,-0.0385 0.16795,-0.0595 0.37047,-0.13068 0.3987,0.33392 0.82486,0.69133 1.35985,1.14019 -0.43973,0.24976 -0.75532,0.50876 -1.13493,0.62854 -1.07473,0.34007 -1.758873,0.95871 -2.090065,1.84332 -0.196717,0.52658 -0.51746,0.97092 -0.938961,1.39845 -0.425582,0.43173 -0.737238,0.93897 -1.104839,1.42104 -3.757219,-1.11593 -6.82209,-2.9788 -9.166973,-5.88129 z m 31.221526,-3.32595 c -1.3361,0.0758 -2.59388,0.22628 -3.87183,0.0472 -0.63898,-0.09 -1.29224,-0.11284 -2.0625,-0.17607 -0.46977,-0.61488 -0.70235,-1.41165 -0.93595,-2.20004 -0.40728,-1.37547 -0.2671,-2.75829 0.0338,-4.13351 0.0428,-0.19372 0.13253,-0.41422 0.29133,-0.55169 1.71439,-1.48958 3.44811,-2.96572 5.33148,-4.57851 0.78947,3.94513 1.50986,7.71078 1.21364,11.59261 z m 2.62263,-8.06312 c 0.42313,-1.52696 1.15553,-2.928 2.35591,-4.15444 1.18307,-1.20884 2.74338,-1.92023 4.52129,-2.3439 0.20152,-0.0477 0.42536,-0.0308 0.77134,-0.0525 0.0292,0.34803 0.12987,0.67429 0.0697,0.97869 -0.2296,1.16642 -0.49888,2.32696 -0.77528,3.48666 -0.43245,1.81543 -0.84862,3.63507 -1.33601,5.44042 -0.50167,1.86321 -1.4937,3.53923 -3.05339,4.96931 -0.22906,0.2104 -0.49373,0.39397 -0.71974,0.60689 -0.49174,0.46357 -1.0586,0.59837 -1.88873,0.25173 -0.0821,-0.58874 -0.18249,-1.19761 -0.24933,-1.80899 -0.26625,-2.46814 -0.37274,-4.93035 0.30425,-7.37381 z m -11.30351,6.38431 c -0.70997,-0.51685 -1.3701,-0.99679 -2.09227,-1.52203 0.54671,-0.50632 1.07204,-0.99168 1.70528,-1.57847 0.13676,1.09612 0.25729,2.06225 0.38699,3.1005 z m -0.49683,2.32026 c -0.909,0.57914 -1.6848,1.33276 -3.02895,1.25762 -0.58609,-0.0329 -1.06755,0.24951 -1.4707,0.59067 -0.42858,0.36212 -0.93647,0.58584 -1.49108,0.65439 -0.53296,-0.4237 -1.03847,-0.82558 -1.48498,-1.18048 1.59828,-1.29171 3.17009,-2.56078 4.77753,-3.86002 0.71923,0.34494 1.83696,1.35924 2.69818,2.53782 z m 31.200726,28.72082 c 1.27076,0.3141 2.61591,0.42113 4.05258,0.63803 1.16125,1.44285 2.012,3.14807 2.68261,4.91948 0.21744,0.57285 0.14918,0.70449 -0.58052,0.92058 -1.65583,0.48912 -3.35938,0.7711 -5.21026,0.66222 -0.73793,-1.46953 -1.40058,-2.90968 -2.17926,-4.3071 -0.77461,-1.38904 -1.66524,-2.73451 -2.50702,-4.10344 1.23101,0.42731 2.44873,0.95023 3.74187,1.27023 z m 8.46315,-9.42367 c 0.38163,-0.10552 0.76532,-0.20853 1.26807,-0.34587 1.11634,1.69526 2.12892,3.34099 2.6886,5.14506 0.23767,0.76323 0.14499,0.96111 -0.58073,1.29209 -2.51298,1.14627 -5.17229,1.92351 -8.06934,2.0306 -1.74616,0.0648 -3.42089,-0.2361 -5.00287,-0.82959 -1.10585,-0.41469 -2.18726,-0.87969 -3.24423,-1.37403 -2.43235,-1.13807 -4.73842,-2.46479 -7.428366,-3.31448 0.32986,-0.30345 0.63425,-0.55744 0.90304,-0.83576 0.592556,-0.61616 0.902286,-1.33892 1.164216,-2.08687 0.16918,-0.48381 0.43095,-0.94495 0.68157,-1.48241 0.54227,0.16203 0.97568,0.28466 1.40298,0.41983 1.42636,0.45171 2.83846,0.93529 4.27807,1.35681 3.97292,1.16214 7.95668,1.12338 11.93899,0.0247 z m -3.85834,-7.78378 c 4.89902,0.93018 8.41812,2.08459 9.57343,3.23561 -0.32371,0.22044 -0.62606,0.47358 -0.98027,0.66046 -2.51411,1.32322 -5.27211,2.08868 -8.2232,2.40541 -2.86358,0.30754 -5.66681,0.0541 -8.43013,-0.59691 -1.61771,-0.3805 -3.23644,-0.75597 -5.01998,-1.17175 0.20421,-1.27714 0.39312,-2.46203 0.59122,-3.70562 4.07287,-1.09789 8.20343,-1.64143 12.48893,-0.8272 z m 6.99363,-7.27151 c 0.2106,0.042 0.41918,0.1033 0.61756,0.17718 0.56768,0.21157 0.64189,0.33485 0.52969,0.83713 -0.0335,0.15179 -0.0694,0.30438 -0.12542,0.45113 -0.68784,1.79522 -1.70938,3.46451 -2.87546,5.2327 -6.11237,-2.02754 -12.184,-2.25877 -18.26916,-0.12427 -1.10973,-0.76188 -1.01652,-1.87134 -1.35578,-2.96585 1.1907,-0.28133 2.33563,-0.60293 3.50899,-0.81633 1.71273,-0.31217 3.36446,-0.75013 4.97048,-1.32482 2.26655,-0.81177 4.60118,-1.4432 7.05975,-1.7165 1.99556,-0.22314 3.97873,-0.14444 5.93935,0.2496 z m -3.47539,-6.57352 c 0.51779,0.25344 0.83915,0.59657 0.86125,1.11149 0.0512,1.15982 -0.21087,2.29017 -0.38247,3.49603 -3.33044,-0.0356 -6.37124,0.55864 -9.3898,1.43805 1.84708,-2.23002 3.12548,-4.67829 4.36421,-7.17773 1.63309,0.15407 3.15621,0.45152 4.54684,1.13216 z m -4.64169,-6.25277 c 0.11395,0.0184 0.21467,0.0873 0.42321,0.17711 -0.11323,0.49223 -0.15319,1.00964 -0.35594,1.48003 -0.54,1.25687 -1.08407,2.51711 -1.74616,3.73201 -0.81589,1.49829 -1.69486,2.97811 -2.65013,4.41933 -1.34633,2.03062 -3.36288,3.41189 -6.1279,3.99453 -1.47564,0.31055 -2.94314,0.64798 -4.428956,0.97616 -0.59098,-0.38347 -0.76364,-0.98398 -1.15207,-1.46717 -0.55928,-0.69458 -0.45413,-1.31344 -0.0549,-2.00095 1.00733,-1.73723 1.923096,-3.51139 2.991456,-5.2226 0.94819,-1.52005 2.25139,-2.83534 3.90144,-3.89976 2.48678,-1.60501 5.33022,-2.29496 8.45919,-2.26108 0.24725,0.002 0.49655,0.0329 0.74074,0.0724 z m -7.19122,-1.5751 c 0.0488,0.0881 0.0579,0.19125 0.0934,0.32038 -0.18218,0.0804 -0.33586,0.16006 -0.50076,0.21952 -2.64923,0.95503 -4.71571,2.46963 -6.32759,4.43221 -1.817556,2.21242 -3.016586,4.66072 -4.079276,7.16358 -0.10188,0.24064 -0.19156,0.48381 -0.30263,0.76303 -0.94732,-0.0599 -1.36011,-0.65463 -1.95001,-1.17396 0.20867,-0.16177 0.38274,-0.29337 0.55277,-0.42832 1.92403,-1.52304 3.12781,-3.39185 3.73545,-5.50745 0.50874,-1.77264 0.88725,-3.57048 1.32884,-5.35656 0.1173,-0.47377 0.253896,-0.94334 0.388486,-1.43892 1.32907,-0.2561 2.59404,-0.52651 3.87323,-0.73903 1.45728,-0.24184 2.03817,-8e-5 2.76615,1.05769 0.15457,0.22314 0.29179,0.45464 0.42191,0.68782 z m 0.44506,-15.40349 c 1.93127,0.0804 3.86254,0.1826 5.79177,0.29905 0.76619,0.0464 1.55276,0.0517 2.34424,0.37574 -0.0429,0.3304 -0.025,0.67004 -0.13687,0.97777 -1.11897,3.0471 -2.22267,6.0984 -3.41082,9.12703 -0.53294,1.35751 -1.44635,2.56142 -2.73817,3.54295 -0.15476,0.11819 -0.32879,0.21958 -0.55477,0.36794 -0.14542,-0.21055 -0.25929,-0.3825 -0.38129,-0.55027 -0.23894,-0.33051 -0.46363,-0.67023 -0.727,-0.98732 -0.93655,-1.12493 -2.22964,-1.53131 -3.82841,-1.20485 -1.11536,0.2277 -2.2155,0.50821 -3.40416,0.78366 0.0409,-0.44109 0.12561,-0.86289 0.10857,-1.28136 -0.0212,-0.53421 -0.0235,-1.09105 -0.21179,-1.59344 -0.3861,-1.035 -1.403396,-1.50081 -2.693766,-1.31261 -3.24321,0.4726 -5.43388,2.06514 -6.8435,4.44711 -0.4074,0.68919 -0.70901,1.42035 -1.09407,2.20179 -0.0905,-0.15936 -0.18403,-0.27344 -0.2216,-0.39926 -0.2011,-0.67265 -0.34013,-1.3612 -0.59619,-2.01877 -0.15853,-0.40846 -0.0311,-0.65161 0.29259,-0.9492 1.14432,-1.05287 2.31,-2.09734 3.35464,-3.2165 0.92856,-0.99509 1.76354,-2.05729 2.53647,-3.13965 1.00307,-1.40514 1.38043,-2.9623 1.29589,-4.65298 1.71189,-0.65096 3.43684,-0.99666 5.227736,-0.99682 1.96389,0.002 3.92772,0.0988 5.89055,0.17999 z m -1.85472,-13.41013 c 0.28071,0.26679 0.32021,0.53516 0.11453,0.84537 -0.78213,1.17964 -1.35672,2.42225 -1.66272,3.74546 -0.0775,0.33458 -0.32286,0.55756 -0.73909,0.61359 -0.61363,0.0828 -1.22728,0.19325 -1.84495,0.21398 -2.187786,0.073 -7.413446,-0.85985 -9.472536,-1.66318 0.0564,-0.75054 0.11276,-1.50695 0.17222,-2.29941 4.28261,0.5249 8.313246,0.34779 11.216136,-2.95861 0.80565,0.45567 1.5818,0.89959 2.21642,1.50279 z M 63.690517,100.017 c 0.79071,-0.12551 1.569068,0.009 2.2649,0.33043 1.469994,0.67815 2.928788,1.37307 4.369257,2.09147 1.05695,0.52704 1.51134,1.33145 1.4365,2.34866 -0.0994,1.34174 -0.52244,2.62214 -1.02485,3.99728 -2.178969,-1.16481 -4.196144,-2.32118 -6.806177,-2.32048 -0.313171,-0.44962 -0.612073,-0.89671 -0.931347,-1.33291 -0.650747,-0.8875 -1.429751,-1.68783 -2.435765,-2.3222 -1.867582,-1.17727 -3.949348,-1.46486 -6.197403,-0.97177 -0.927109,0.20343 -1.705774,0.62916 -2.308512,1.2537 -1.225846,1.27172 -2.407944,2.56106 -2.91762,4.17856 -0.290518,0.92236 -0.927916,1.67017 -1.824723,2.28118 -0.552742,0.37633 -1.07091,0.78957 -1.571783,1.21288 -1.599327,1.34705 -2.121191,2.93015 -1.449591,4.74936 0.197101,0.53343 0.434931,1.05682 0.703208,1.70433 -1.764231,-0.39146 -3.40942,-0.75687 -4.754111,-1.69411 -0.700828,-0.48834 -1.109526,-1.1359 -0.997169,-1.90822 0.103147,-0.71027 0.225677,-1.43479 0.495704,-2.11061 0.957826,-2.39555 2.159827,-4.708 3.561225,-6.95412 1.40446,-2.24947 3.552368,-3.81268 6.299342,-4.8641 1.471698,-0.563 2.946449,-1.1218 4.420177,-1.67976 0.198448,-0.0754 0.404049,-0.13655 0.604546,-0.20859 1.600939,-0.578044 3.07634,-0.475179 4.452567,0.47633 0.667265,0.46148 1.405794,0.85507 2.13109,1.2562 0.747675,0.41288 1.550404,0.63458 2.480535,0.48649 z m -12.298939,32.59313 c -1.078675,0.1153 -1.837603,-0.18856 -2.292018,-0.97701 -0.34563,-0.60058 -0.694321,-1.21206 -0.916813,-1.84781 -0.601443,-1.71687 -1.481758,-3.32147 -2.601249,-4.84733 -0.320286,-0.4362 -0.58561,-0.9076 -0.807171,-1.38401 -0.277442,-0.59384 -0.283211,-1.22365 0.0092,-1.81141 0.688637,-1.38596 1.844133,-2.41451 3.574332,-3.04617 0.05488,0.16944 0.105685,0.28767 0.128991,0.40845 0.190756,1.00305 0.735672,1.87542 1.633805,2.54329 1.69354,1.25856 3.066456,2.67297 3.873407,4.45953 0.241868,0.53512 0.735134,1.01835 1.210089,1.45293 2.082905,1.90611 5.155837,2.0708 7.5175,0.3953 0.607719,-0.43166 1.100519,-0.97489 1.633994,-1.47619 0.200563,-0.18862 0.365551,-0.40239 0.589528,-0.65138 1.074321,0.39791 2.115068,0.78238 3.21686,1.19036 -0.443277,1.15126 -0.795971,2.26816 -1.30432,3.33384 -0.712101,1.49246 -2.258082,2.05627 -4.072459,2.18893 -0.710285,0.0517 -1.437827,0.0304 -2.150089,-0.0219 -3.085104,-0.22843 -6.168301,-0.23711 -9.243541,0.0904 z m 0.788879,-15.20041 c -0.07019,-0.0747 -0.139336,-0.12333 -0.129145,-0.14096 0.721092,-1.209 1.078975,-2.50872 1.437877,-3.81095 0.137644,-0.49809 0.311901,-0.997 0.554361,-1.46569 0.760932,-1.47399 2.90436,-2.29419 4.722487,-1.83898 0.73966,0.18478 1.340845,0.53554 1.813731,1.03469 0.683399,0.7223 1.040989,1.7858 0.924428,2.79629 -3.497556,0.38277 -6.521457,1.71503 -9.323739,3.42558 z m 13.399471,-0.50065 c 0.166757,0.24494 0.331438,0.50665 0.40151,0.77754 0.292441,1.12805 0.596055,2.2561 0.797918,3.39585 0.110569,0.62564 -0.430913,0.87367 -1.128795,0.58241 -0.190256,-0.0789 -0.357052,-0.20558 -0.50961,-0.33144 -0.130184,-0.10742 -0.240022,-0.23826 -0.332554,-0.37163 -1.148924,-1.65167 -1.819508,-3.46835 -2.741467,-5.21134 1.42372,-0.28542 2.863293,0.20152 3.512986,1.15861 z m -8.834435,0.01 c 0.901814,-0.46761 1.90731,-0.73475 3.003326,-0.93058 0.956437,1.96188 1.895591,3.88853 2.879472,5.90828 -1.677837,-0.21281 -3.355824,-0.14552 -4.857404,-0.75323 -1.264539,-0.51119 -1.932569,-1.42636 -2.041819,-2.59124 -0.06473,-0.70614 0.309017,-1.26619 1.016425,-1.63323 z m -0.659212,5.20754 c -0.69709,0.11965 -1.361616,0.23429 -2.046499,0.35228 -1.022149,-0.89686 -2.035143,-1.78617 -3.136624,-2.75183 0.925224,-0.47598 1.727287,-0.88828 2.540546,-1.30728 0.890688,1.24903 1.744774,2.4469 2.642577,3.70683 z m 3.414193,4.99774 c -1.345348,0.25442 -2.488896,-0.0915 -3.252539,-1.06542 -0.41894,-0.53436 -0.733037,-1.12486 -1.138689,-1.76068 2.788448,-0.61701 5.321956,-0.23702 7.891884,0.52207 -0.820808,1.18717 -1.929381,2.00691 -3.500656,2.30403 z m 10.79112,-1.69665 c -0.68372,-0.13778 -1.347054,-0.34099 -2.121304,-0.54254 0.253559,-0.33284 0.436842,-0.56339 0.607923,-0.79897 0.862528,-1.19219 1.796271,-2.35415 2.565211,-3.58578 1.17938,-1.88728 1.26695,-3.84541 0.19652,-5.80481 -0.87014,-1.59202 -1.749452,-3.17985 -2.661284,-4.83645 0.13026,0.0301 0.243213,0.032 0.319477,0.0773 1.423097,0.83748 2.832967,1.6892 4.264207,2.51745 0.90229,0.52279 1.29367,1.1997 1.18734,2.11458 -0.26379,2.27758 -0.4299,4.56442 -0.76288,6.83526 -0.12053,0.82347 -0.53513,1.63677 -0.9497,2.40562 -0.25671,0.47624 -0.7311,0.88698 -1.17395,1.27593 -0.38074,0.3353 -0.92928,0.45167 -1.47157,0.34244 z m -2.856349,-14.59043 c 0.277557,0.40096 0.557176,0.80528 0.779788,1.22886 0.632256,1.20197 1.239063,2.41316 1.850961,3.62351 1.01137,2.00382 0.52601,3.81169 -1.139699,5.58976 -0.288365,-1.08108 -0.509673,-2.06485 -0.822551,-3.0277 -0.216369,-0.66678 -0.502953,-1.32771 -0.858755,-1.95178 -0.742095,-1.30013 -2.00751,-2.06709 -3.740282,-2.29585 -0.180103,-0.0234 -0.355091,-0.0664 -0.59114,-0.11176 -0.06823,-1.75272 -0.624964,-3.35385 -2.132213,-4.7398 1.138867,-0.39875 2.219465,-0.31366 3.276634,-0.18159 1.461113,0.18251 2.628932,0.7851 3.377257,1.86635 z m -14.05764,-1.68252 c -0.881574,0.66218 -1.407099,1.5006 -1.761716,2.41958 -0.263943,0.68589 -0.447481,1.39445 -0.756167,2.06522 -0.363705,0.78984 -0.804732,1.55616 -1.253901,2.31578 -0.111031,0.18783 -0.353283,0.36131 -0.586363,0.45431 -0.724661,0.28989 -1.473716,0.53783 -2.251285,0.81513 -0.511388,-0.80108 -0.828393,-1.6591 -0.940846,-2.55562 -0.09219,-0.7313 0.292825,-1.36766 0.870043,-1.89745 0.497838,-0.4577 1.056711,-0.87428 1.616591,-1.28247 0.820485,-0.59847 1.618584,-1.20448 2.165457,-2.00851 0.118146,-0.17356 0.402122,-0.33529 0.641271,-0.37629 0.789699,-0.13474 1.594631,-0.21157 2.540007,-0.32946 -0.145643,0.19784 -0.190448,0.31023 -0.283095,0.37978 z m -1.981159,-1.89281 c 0.632614,-1.27948 1.346534,-2.38451 2.414455,-3.29568 0.660708,-0.5633 1.593878,-0.6879 2.505618,-0.70684 1.112203,-0.0241 2.1622,0.1979 3.08177,0.745 1.184045,0.70405 2.042354,1.62936 2.733698,2.69801 -0.920109,0.42986 -1.803574,0.84297 -2.756254,1.28875 -2.464028,-0.89992 -5.128924,-1.05774 -7.979287,-0.72924 z m -11.115956,-1.5489 c -0.123261,0.26666 -0.236368,0.51902 -0.355552,0.77056 -0.623472,1.31554 -1.293749,2.6185 -1.855163,3.95252 -0.304633,0.72277 -0.499423,1.48919 -0.616861,2.24977 -0.277789,1.79872 0.488643,3.28336 2.176125,4.44128 0.898168,0.61671 1.936861,1.0297 3.024447,1.36388 0.522937,0.16035 1.051985,0.30903 1.65835,0.48618 -0.147644,0.20038 -0.254598,0.37057 -0.388996,0.52566 -1.349129,1.56016 -1.525075,3.22558 -0.617357,4.96772 0.293749,0.56449 0.658762,1.10805 1.041074,1.63653 0.835791,1.15592 1.488396,2.36712 1.883499,3.67886 0.415414,1.38135 1.044554,2.69234 2.29346,3.887 -0.411252,0.27993 -0.706501,0.56328 -1.081048,0.71996 -1.938896,0.81188 -3.929357,1.02834 -5.903927,0.10932 -0.782307,-0.36426 -1.526909,-0.81068 -2.19619,-1.30403 -1.115807,-0.82226 -2.151184,-1.71829 -3.232375,-2.57241 -1.803339,-1.4238 -3.615844,-2.83839 -5.424276,-4.25716 -0.429223,-0.33728 -0.860482,-0.67206 -1.283599,-1.01437 -0.751636,-0.60911 -1.000526,-1.35306 -0.793494,-2.19159 0.161104,-0.65406 0.307017,-1.31819 0.566837,-1.94789 1.496804,-3.62896 2.766719,-7.31 3.877915,-11.0305 0.148835,-0.49809 0.343437,-0.98944 0.566576,-1.46821 1.104342,-2.37369 3.462624,-3.45546 6.660555,-3.00308 z m 9.855256,29.03567 c 1.261773,4.7e-4 2.379049,-0.003 3.497345,0.002 2.060545,0.01 4.12007,0.0311 6.180623,0.0358 0.873062,0.002 1.750197,0.007 2.620233,-0.046 2.994772,-0.18085 4.971607,-1.51015 6.027049,-3.77904 0.389173,-0.83679 0.622684,-1.72227 0.930462,-2.5851 0.0958,-0.26748 0.198717,-0.53411 0.308787,-0.82843 0.151604,6e-5 0.274749,-0.0193 0.385649,0.003 1.36846,0.27055 2.44019,-0.15592 3.36152,-0.95309 1.20027,-1.03858 1.76371,-2.34745 2.29968,-3.6689 0.0978,-0.24149 0.17529,-0.48885 0.28229,-0.78735 0.28994,0.10915 0.54734,0.18722 0.78132,0.29714 3.46795,1.62989 5.60247,4.02242 6.17455,7.31755 0.1978,1.14142 0.003,2.23323 -0.76798,3.18141 -0.61909,0.76207 -1.32569,1.51068 -2.15839,2.11166 -1.33455,0.96306 -2.7525,1.86152 -4.22739,2.67442 -3.45261,1.90319 -6.883858,3.82485 -10.140209,5.95454 -0.802121,0.52467 -1.689678,0.96964 -2.577224,1.39364 -1.123679,0.53713 -2.315266,0.57778 -3.504537,0.12786 -0.793529,-0.3005 -1.592146,-0.59769 -2.357159,-0.94349 -2.032573,-0.9182 -4.149699,-1.65614 -6.375817,-2.19872 -0.922801,-0.2251 -1.854736,-0.48961 -2.696047,-0.86814 -2.102765,-0.94675 -3.00549,-2.5111 -3.181424,-4.53977 2.156253,-0.0923 4.00439,-0.53857 5.136665,-1.90089 z m 26.304828,-14.61938 c 0.0594,-0.77737 0.13414,-1.54132 0.17325,-2.30696 0.0628,-1.23274 0.1408,-2.46631 0.14246,-3.69991 0.002,-1.26547 -0.66218,-2.28883 -1.90014,-3.03817 -0.92872,-0.56222 -1.88391,-1.09426 -2.88588,-1.67496 0.0571,-0.17188 0.1223,-0.36224 0.18145,-0.55342 0.37613,-1.2192 0.84388,-2.42495 1.10302,-3.66097 0.38566,-1.84229 -0.30944,-3.44179 -2.14146,-4.57544 -1.342715,-0.83157 -2.792337,-1.55081 -4.229745,-2.27172 -0.946068,-0.47417 -2.038862,-0.58612 -3.082,-0.33073 -1.046193,0.25623 -1.823466,9.9e-4 -2.556815,-0.55613 -0.181064,-0.137587 -0.363128,-0.272674 -0.598073,-0.448879 0.258559,-0.186909 0.446899,-0.347856 0.663707,-0.476921 2.367616,-1.402947 4.968823,-1.999902 7.869617,-1.52164 1.185349,0.195847 2.253549,0.612194 3.171029,1.260788 0.51976,0.367511 1.02833,0.755139 1.47887,1.180492 2.09508,1.97739 4.16776,3.97072 6.24654,5.96069 0.16272,0.15604 0.30202,0.32802 0.46577,0.48322 1.89269,1.79367 2.42778,3.89459 2.07138,6.19729 -0.24814,1.60753 -0.50344,3.21422 -0.75668,4.82174 -0.35432,2.24652 -0.0605,4.46644 0.37994,6.68306 0.15829,0.79674 0.37662,1.59602 0.2306,2.5696 -1.61792,-1.85227 -3.59533,-3.14616 -6.0268,-4.04103 z m 8.40569,-10.39481 c 0.40059,-3.08846 -0.5371,-5.82773 -3.19677,-8.08124 -2.43895,-2.06559 -4.88809,-4.1253 -7.40748,-6.123827 -4.34408,-3.444982 -10.695998,-2.856984 -14.330034,-0.405406 -0.30944,0.208684 -0.63111,0.405653 -0.964986,0.62021 -0.218716,-0.116671 -0.402838,-0.207289 -0.577799,-0.308842 -0.695786,-0.405311 -1.479216,-0.569136 -2.309596,-0.47217 -0.736761,0.08609 -1.51523,0.1529 -2.179829,0.400877 -2.643143,0.986894 -5.265957,2.011531 -7.632561,3.427898 -1.753832,1.05012 -3.108934,2.36959 -4.134478,3.93322 -0.279057,0.42591 -0.568268,0.84679 -0.855451,1.2727 -0.848564,-0.14539 -1.636079,-0.2807 -2.543654,-0.43704 2.69e-4,-0.48556 -0.05238,-0.99461 0.01077,-1.49357 0.183141,-1.45828 0.386427,-2.91571 0.63246,-4.3681 0.172527,-1.017172 0.385766,-2.032649 0.656989,-3.034691 0.405818,-1.497612 1.488081,-2.585725 3.155219,-3.266053 0.754178,-0.307479 1.507356,-0.640131 2.30422,-0.851164 3.683078,-0.972247 7.375302,-1.921845 11.078705,-2.842089 0.830442,-0.206814 1.709662,-0.298763 2.575652,-0.385631 1.924304,-0.192995 3.800593,-0.02948 5.59826,0.607582 0.65925,0.233375 1.34396,0.424842 1.984877,0.68673 3.601336,1.473121 7.387106,2.48172 11.314496,3.174213 1.46005,0.257146 2.88339,0.661912 4.31184,1.028085 2.18134,0.560173 3.43428,1.788375 3.78329,3.650227 0.26683,1.423231 0.54384,2.844781 0.82085,4.266341 0.52052,2.67369 1.43998,5.262 2.4439,7.83524 0.62999,1.61373 1.30171,3.2258 1.49919,4.92742 0.0516,0.44197 -0.0339,0.89563 -0.066,1.53799 -1.85618,-1.54878 -3.88978,-2.45692 -6.25734,-2.99201 0.0981,-0.78909 0.18603,-1.54885 0.28518,-2.30691 z m 13.99389,-13.664235 c -1.27874,-0.59422 -2.35093,-1.173265 -3.50256,-1.6081 -1.3897,-0.523815 -2.24501,-1.335917 -2.5842,-2.555387 -0.12488,-0.448705 -0.29763,-0.894073 -0.50499,-1.321844 -0.62509,-1.288344 -1.81331,-1.809572 -3.43652,-1.44371 -0.89556,0.201774 -1.75049,0.531865 -2.6176,0.815826 -0.34198,0.112235 -0.6697,0.254675 -1.18469,0.453245 0.18737,-0.292614 0.28009,-0.463647 0.40024,-0.619583 0.2831,-0.369723 0.58245,-0.730213 0.87062,-1.09742 1.63433,-2.082501 0.79698,-4.099683 -0.60144,-5.40425 -0.65903,-0.614952 -1.40867,-1.166202 -2.12777,-1.73673 -0.40277,-0.319663 -0.82693,-0.620885 -1.28972,-0.96573 0.41949,-0.467787 0.9243,-0.668864 1.44232,-0.809557 0.79789,-0.216069 1.61406,-0.392703 2.43329,-0.550893 1.66897,-0.322236 3.3349,-0.668799 5.02113,-0.913879 1.70963,-0.248431 2.58545,0.289476 2.93369,1.70181 0.29852,1.207718 0.4942,2.434684 0.83341,3.633187 0.23967,0.846255 0.58111,1.682477 0.98972,2.483508 0.96564,1.89479 2.57259,3.321039 4.818836,4.243518 0.53003,0.2174 1.05598,0.444024 1.5687,0.689091 0.77008,0.367603 1.12388,0.935478 1.12144,1.66507 -0.005,1.170703 -0.47642,2.207051 -1.31136,3.186237 -1.19447,-0.248684 -2.353556,-0.101521 -3.272546,0.155594 z m -10.12493,4.082755 c -0.13787,-0.86885 -0.24029,-1.57836 -0.36605,-2.28368 -0.14506,-0.812673 -0.2789,-1.628689 -0.47792,-2.432997 -0.33609,-1.352811 -1.01307,-2.581631 -2.34238,-3.753675 1.35763,-0.365124 2.49444,-0.72027 3.66477,-0.969737 1.07263,-0.229381 1.12957,-0.152203 1.40892,0.714191 0.16049,0.495682 0.32713,0.991363 0.53136,1.476157 0.56705,1.344513 1.61458,2.362142 3.14054,3.036124 0.57681,0.25515 1.16686,0.491029 1.7447,0.744505 1.41508,0.621107 1.64166,1.212412 0.99386,2.368612 -0.88228,0.10619 -1.69945,0.22916 -2.52269,0.29424 -0.61768,0.0484 -1.24755,0.0565 -1.86621,0.0203 -1.35432,-0.0793 -2.69339,-0.15112 -3.90888,0.78599 z m -7.37744,-18.106757 c 0.68247,0.565482 1.38123,1.11671 2.04944,1.693092 1.11879,0.964824 1.27606,1.763243 0.61196,2.947956 -0.11715,0.209635 -0.25056,0.414182 -0.38701,0.616236 -0.58762,0.872777 -1.1793,1.744711 -1.75367,2.593174 -3.00046,-0.572226 -5.96938,-1.138567 -9.14586,-1.743564 0.37986,-0.532375 0.66399,-0.985119 1.00917,-1.40178 0.51014,-0.615351 1.10573,-1.182868 1.59145,-1.810809 0.97144,-1.255879 0.83861,-2.096215 -0.36252,-3.199448 -0.53801,-0.494144 -1.07093,-1.005059 -1.50206,-1.562899 -0.53892,-0.696251 -0.52731,-1.45687 -0.0965,-2.21146 0.27806,-0.48797 0.58055,-0.972574 0.78027,-1.483213 0.20791,-0.531602 0.30386,-1.093439 0.46597,-1.70892 0.71442,-0.175847 1.51522,-0.140317 2.31499,-0.07629 0.39072,0.03106 0.5982,0.228336 0.64991,0.556243 0.0598,0.381593 0.16033,0.759005 0.22733,1.140602 0.39053,2.222472 1.64415,4.075439 3.54713,5.651073 z m 30.602076,21.962207 c 0.17995,0.25753 0.25298,0.66931 0.14091,0.94517 -0.92927,2.28991 -2.69162,4.00169 -5.29208,5.09511 -0.80771,-0.44561 -1.55029,-0.85513 -2.36714,-1.30578 0.77198,-1.23079 1.42901,-2.49601 2.36783,-3.65043 0.40935,-0.50301 0.6783,-1.08239 1.01744,-1.62485 0.0815,-0.13077 0.15788,-0.27752 0.2851,-0.37308 0.47947,-0.36042 0.97928,-0.70322 1.53407,-1.098 0.87886,0.56053 1.73631,1.18645 2.31383,2.01186 z M 92.720774,101.1961 c 1.21176,0.273 2.45418,0.31876 3.70791,0.1297 0.25952,-0.0393 0.62372,0.0698 0.84039,0.21331 1.66004,1.09753 3.565766,1.38841 5.630456,1.26591 0.79575,-0.0475 1.5996,-0.007 2.47572,-0.007 -0.0571,0.13163 -0.0754,0.22808 -0.13445,0.30351 -0.75761,0.97083 -1.52436,1.93747 -2.28196,2.9083 -0.23621,0.30266 -0.45824,0.61201 -0.67617,0.92306 -1.53874,2.18736 -3.924516,3.31775 -6.882756,3.6806 -1.1316,0.13879 -2.28653,0.14757 -3.53003,0.22174 -0.9131,-3.03193 -2.11736,-5.8409 -2.76798,-8.79306 1.07901,-0.7141 2.18534,-1.17073 3.6189,-0.84648 z m 6.35618,-0.92427 c 0.56016,-0.90214 0.5108,-1.81373 0.30579,-2.74635 0.756166,-0.228651 1.471516,-0.239269 2.160326,-0.11154 0.36529,0.0681 0.80576,0.26279 0.99184,0.51193 0.72702,0.97139 1.36649,1.98719 2.127,3.11877 -1.99228,-0.17854 -3.84536,0.0337 -5.584936,-0.77279 z m 0.63317,-20.675777 c 0.312166,0.382525 0.590756,0.791034 0.816426,1.212101 0.95958,1.789963 2.35482,3.324313 3.9974,4.719545 0.73942,0.627557 1.47069,1.261825 2.19382,1.901959 0.2756,0.24412 0.51256,0.518458 0.77699,0.771817 0.95905,0.913611 1.30342,1.964523 1.07381,3.155268 -0.38473,1.995753 -0.33494,3.997544 -0.12437,6.002749 0.0404,0.382428 0.0484,0.772378 0.0154,1.154778 -0.0953,1.09603 -0.54635,1.69128 -1.78713,2.36757 -1.13479,-1.4353 -1.7373,-3.07837 -3.208,-4.310844 0.19144,-0.292614 0.37985,-0.555019 0.53976,-0.828346 0.71704,-1.22159 1.18683,-2.483526 0.93015,-3.868172 -0.18768,-1.015632 -0.77843,-1.84105 -1.73458,-2.479593 -0.53198,-0.354934 -1.09044,-0.695624 -1.68555,-0.97091 -2.463896,-1.136408 -3.914966,-2.897205 -4.682026,-5.083759 -0.23363,-0.665944 -0.42561,-1.342779 -0.59923,-2.021284 -0.32594,-1.277327 -0.53889,-2.580616 -1.55476,-3.804533 2.0991,0.214642 3.86839,0.654736 5.03169,2.081654 z m -22.1046,-8.832201 c 1.69069,-0.950352 3.52065,-1.664163 5.5163,-2.048336 0.59838,-0.115499 1.23537,-0.112741 1.85609,-0.130966 0.55662,-0.01648 0.98285,0.203327 1.1505,0.646162 0.79153,2.080061 2.4605,3.591869 4.50202,4.901713 1.0711,0.687227 1.23472,1.073052 1.25155,1.918381 -3.67139,0.06653 -8.36091,1.192715 -11.07556,2.680239 -0.17888,-0.387511 -0.38728,-0.747352 -0.51223,-1.125613 -0.26921,-0.818587 -0.44884,-1.658109 -0.75061,-2.467483 -0.46332,-1.241324 -1.55989,-1.872371 -3.15338,-1.893937 -0.40397,-0.0051 -0.80895,-0.0011 -1.2984,-0.0013 0.0795,-0.170205 0.12434,-0.331209 0.2231,-0.466188 0.58656,-0.807361 1.34908,-1.483001 2.29062,-2.012647 z m -5.49602,-1.498154 c -0.0857,0.424309 -0.24163,0.82259 -0.2296,1.217581 0.0262,0.819335 0.0693,1.646226 0.23983,2.451359 0.17761,0.835325 0.004,1.580787 -0.46528,2.306012 -0.26479,0.408306 -0.54382,0.810732 -0.78725,1.227435 -0.77408,1.325555 -0.7056,2.627947 0.15353,3.918897 0.53479,0.802752 1.27928,1.453796 2.06856,2.080536 0.57975,0.460617 0.59089,0.55287 0.22629,1.127182 -0.1008,0.159302 -0.21591,0.314389 -0.34521,0.458591 -0.97847,1.091509 -2.0658,2.126786 -2.53669,3.527936 -0.655199,-0.187258 -1.210698,-0.344288 -1.763145,-0.504674 -1.471151,-0.428243 -2.93313,-0.878289 -4.412438,-1.283898 -1.879143,-0.513938 -3.809458,-0.489504 -5.748019,-0.288113 -0.209601,0.02187 -0.419256,0.04178 -0.713347,0.07103 0.705113,-5.416338 8.973902,-14.821634 14.312829,-16.309842 z m -14.563013,5.03627 c 0.433805,-0.581834 0.819762,-1.134336 1.247429,-1.664176 0.475524,-0.58853 1.159453,-0.820571 2.016186,-0.726321 1.085667,0.119493 2.140766,0.312741 3.168241,0.777744 -1.056846,1.117477 -2.097396,2.218184 -3.175617,3.356618 -1.042689,-0.558072 -2.099616,-1.124533 -3.256239,-1.743865 z m -13.864157,9.07781 c -0.566534,-0.441323 -1.182953,-0.839059 -1.761705,-1.270322 -0.486193,-0.361625 -0.975435,-0.72493 -1.416839,-1.121759 -0.459703,-0.413609 -0.458534,-0.694546 0.09115,-1.035655 0.643321,-0.399773 1.324289,-0.800377 2.064187,-1.044973 1.534759,-0.505947 2.674891,-1.354195 3.370542,-2.546442 0.64269,-1.102535 1.69096,-1.433393 3.038181,-1.395986 2.802313,0.07819 5.525081,0.469184 8.067384,1.494924 0.585983,0.236703 1.142428,0.527079 1.695821,0.814093 0.256366,0.133438 0.474005,0.318851 0.732368,0.496737 -1.614276,2.609995 -2.980281,5.249438 -3.67684,8.080333 -2.79359,0.715126 -5.551564,1.421882 -8.287146,2.12277 -0.08849,-0.07636 -0.153566,-0.10824 -0.168834,-0.150998 -0.650228,-1.825069 -2.124941,-3.178304 -3.748262,-4.442706 z M 28.963497,136.46267 c -2.254681,-0.40841 -4.500186,-0.85456 -6.764048,-1.22189 -1.405117,-0.22865 -2.841856,-0.32393 -4.258196,-0.5098 -2.291367,-0.30025 -3.760072,-1.47737 -4.570124,-3.17922 -0.554938,-1.16588 -0.960267,-2.3946 -1.272995,-3.62245 -0.545243,-2.13783 -1.017214,-4.29073 -1.429151,-6.44948 -0.561076,-2.94206 0.08661,-5.69499 2.215661,-8.14462 0.908241,-1.0454 1.876496,-2.05725 2.872215,-3.04728 1.537359,-1.53072 3.005541,-3.09083 3.962051,-4.93962 0.319863,-0.61877 0.359552,-0.59612 1.221331,-0.47419 0.490423,0.0698 0.987966,0.14713 1.482497,0.15236 1.306535,0.0133 2.110752,-0.60637 2.199873,-1.68562 0.06761,-0.82098 0.07215,-1.64534 0.132606,-2.46716 0.09638,-1.29814 0.543759,-2.52653 1.130533,-3.726373 0.804779,-1.644216 1.711304,-3.260725 2.162026,-5.007385 0.194795,-0.753839 0.320363,-1.520284 0.511057,-2.274966 0.126453,-0.500604 0.255982,-1.010435 0.485178,-1.482484 0.361667,-0.745395 1.090436,-1.140107 2.066237,-1.07265 0.866928,0.05987 1.740948,0.165864 2.579312,0.351511 2.403175,0.531745 4.841133,0.733088 7.32399,0.702993 1.336061,-0.01616 2.673087,0.05804 4.010144,0.09125 0.01308,0.07547 0.02654,0.150966 0.04057,0.225578 -0.274788,0.100538 -0.553657,0.196006 -0.825404,0.303264 -0.928216,0.366125 -1.876765,0.702888 -2.776514,1.112633 -1.686517,0.768375 -2.877696,1.921018 -3.372061,3.456335 -0.439324,1.362582 -0.777923,2.754556 -1.022906,4.149914 -0.25006,1.42303 -0.347553,2.86625 -0.477586,4.30275 -0.05015,0.55766 -0.0088,1.12122 -0.0088,1.72754 0.02231,-0.0244 0.0081,0.009 -0.01538,0.0143 -2.501449,0.52739 -3.964462,1.94577 -4.847743,3.85245 -0.333131,0.72024 -0.637794,1.45056 -0.934308,2.18172 -1.155485,2.85253 -2.30589,5.70673 -3.450187,8.56262 -0.528844,1.31978 -0.9946,2.64965 -1.093066,4.05345 -0.12103,1.72163 0.486654,3.20704 2.026582,4.38839 1.027298,0.78784 2.110587,1.52539 3.201992,2.30907 -0.05907,0.0704 -0.107954,0.16516 -0.193448,0.22637 -1.701004,1.21115 -2.154688,2.78003 -1.886007,4.53786 0.116607,0.76402 0.320708,1.51969 0.481059,2.27953 0.02538,0.11991 0.03269,0.24235 0.05877,0.45455 -0.374435,-0.0504 -0.67358,-0.0782 -0.96559,-0.13115 z m 2.320408,-2.51664 c -0.361398,-1.53648 0.372897,-2.69936 1.911963,-3.62797 0.247137,0.17369 0.487224,0.3306 0.710997,0.50092 1.19207,0.90951 2.368873,1.83159 3.571132,2.73103 2.20515,1.64871 3.33534,2.2152 6.035468,3.06573 0.0273,0.18618 0.0598,0.38746 0.08615,0.58958 0.340476,2.58808 1.995007,4.44204 4.727489,5.66157 0.819951,0.36595 1.697948,0.65224 2.573914,0.92093 1.973724,0.60538 3.792655,1.43965 5.539268,2.40136 0.959267,0.52784 1.943983,1.02887 2.951109,1.49132 1.813843,0.83342 3.585447,0.7712 5.252792,-0.29071 0.839784,-0.53472 1.69889,-1.05518 2.476632,-1.6461 2.874785,-2.18687 5.973315,-4.14051 9.142015,-6.022 1.80269,-1.07024 3.5474,-2.19417 5.09888,-3.50937 1.33974,-1.13665 2.47806,-2.3866 3.02637,-3.93699 0.66652,-1.88495 0.3287,-3.72835 -0.44162,-5.52746 -0.25002,-0.58461 -0.2619,-1.08359 -0.0897,-1.69404 0.23652,-0.83768 0.29502,-1.73162 0.25783,-2.59709 -0.0713,-1.6697 -0.32782,-3.33445 -0.37882,-5.00414 -0.0311,-1.01977 0.17714,-2.04364 0.2836,-3.12373 0.30017,0.0276 0.51996,0.01 0.70004,0.0707 0.92071,0.31483 1.86282,0.60115 2.73872,0.98808 1.5931,0.70335 2.74236,1.75541 3.41826,3.15698 0.99098,2.05414 2.01962,4.09571 3.0218,6.1465 0.6942,1.42003 0.66085,2.84398 -0.26079,4.16865 -0.78822,1.13351 -1.62019,2.27455 -2.64542,3.26289 -2.51674,2.42432 -5.14843,4.76726 -7.74756,7.13369 -2.93408,2.67155 -5.85087,5.35654 -8.83886,7.98698 -1.27664,1.1241 -2.64787,2.1903 -4.09233,3.16507 -2.269999,1.53213 -4.92306,2.06365 -7.821851,1.64326 -1.47432,-0.21357 -2.937422,-0.47744 -4.402566,-0.73293 -2.289283,-0.39836 -4.56429,-0.85626 -6.866833,-1.19174 -1.126349,-0.16393 -2.300629,-0.1258 -3.453514,-0.14469 -1.029755,-0.0171 -2.060556,0.007 -3.09135,0.0222 -0.931073,0.0139 -1.610641,-0.27987 -2.030493,-0.99536 -0.814297,-1.38821 -1.661161,-2.76302 -2.495815,-4.14285 -0.250098,-0.41353 -0.466586,-0.84466 -0.758408,-1.23808 -0.62533,-0.84472 -1.525598,-1.3348 -2.760893,-1.37049 -0.497576,-0.0146 -0.994111,-0.0792 -1.489634,-0.12469 -1.153851,-0.10527 -1.902491,-0.62046 -2.186894,-1.54472 -0.221446,-0.72212 -0.38282,-1.45597 -0.566588,-2.18563 -0.369589,-1.48449 -0.75542,-2.9673 -1.104634,-4.45681 z m 1.128871,17.6591 c -3.287763,-1.77323 -6.536833,-3.59591 -9.79914,-5.40184 -0.414018,-0.22909 -0.812767,-0.47915 -1.195221,-0.74262 -1.160592,-0.79628 -1.827546,-1.81293 -1.899102,-3.06501 -0.102801,-1.79802 -0.18118,-3.59604 -0.265636,-5.3949 -0.003,-0.0713 0.04077,-0.14503 0.06119,-0.21213 1.326957,-0.11103 7.56608,0.86745 11.040557,1.73337 0.136029,0.5485 0.226292,1.13641 0.436616,1.69333 0.258059,0.68188 0.532436,1.3772 0.949292,1.99793 0.815408,1.21462 2.14705,1.82814 3.818845,1.92437 0.528094,0.0304 1.062311,0.0382 1.58942,0.009 0.576972,-0.0317 0.956411,0.16554 1.212612,0.5682 0.144375,0.22732 0.286711,0.45631 0.422924,0.68698 0.82955,1.40918 1.685556,2.80831 2.478462,4.23173 0.896596,1.60796 2.429662,2.31801 4.523758,2.38756 2.118514,0.0704 4.233944,0.19867 6.349389,0.30932 0.271673,0.0143 0.539259,0.0782 0.96151,0.14291 -0.834773,0.68064 -1.726326,0.99143 -2.719514,1.08666 -1.300506,0.12533 -2.609126,0.1961 -3.91267,0.2954 -0.776435,0.0592 -1.551846,0.1227 -2.327265,0.19284 -4.277006,0.38835 -8.167643,-0.52301 -11.725995,-2.4431 z m -12.976954,22.13704 c 0.04392,-0.27002 0.0573,-0.52747 0.130684,-0.77232 1.137713,-3.82449 2.490095,-7.59103 4.458008,-11.19129 0.848484,-1.55196 1.823112,-3.04349 3.069356,-4.40577 1.469224,-1.60623 3.240501,-2.91547 5.536595,-3.79012 2.352013,1.04747 4.882291,1.74363 7.54299,2.13543 2.644416,0.39011 5.282063,0.1387 7.929859,-0.0616 0.366859,0.80605 0.712439,1.56596 1.091528,2.39801 -0.346014,0.0988 -0.690013,0.19765 -1.036039,0.29566 -2.029324,0.57284 -3.911213,1.34366 -5.414873,2.65385 -1.751044,1.52729 -1.683606,2.86659 0.296864,4.19737 0.674387,0.45311 1.426154,0.82825 2.146358,1.23525 0.251252,0.14183 0.512699,0.27106 0.82195,0.43387 -0.385838,0.3353 -0.736037,0.62113 -1.061826,0.92459 -1.527124,1.42171 -1.624402,2.52865 -0.373666,4.11494 0.185064,0.23486 0.374205,0.46725 0.579606,0.72394 -1.31297,0.57647 -2.709131,0.7118 -4.098161,0.82869 -2.489061,0.21039 -4.983076,0.17676 -7.483163,0.0802 -3.868669,-0.14907 -7.738423,-0.1807 -11.596193,0.19689 -0.711308,0.0694 -1.431742,0.0724 -2.148115,0.094 -0.112954,0.004 -0.229946,-0.0521 -0.391712,-0.0916 z m 35.083695,-0.62919 c 3.812254,-0.87157 7.655998,-1.64836 11.487554,-2.46289 0.179103,-0.0377 0.361283,-0.0653 0.56378,-0.10126 0.407756,0.51338 0.733118,0.98061 1.127695,1.40426 0.377281,0.40436 0.825834,0.76261 1.304866,1.19635 -0.399976,0.13065 -0.733802,0.25465 -1.079821,0.3493 -1.892945,0.51839 -3.79097,1.02587 -5.683915,1.54511 -1.779976,0.48908 -3.486769,1.11236 -5.101053,1.90592 -1.756785,0.86395 -3.304058,1.92841 -4.637834,3.32252 -2.666603,-0.74317 -5.206941,-1.65486 -7.642253,-2.95814 1.45778,-1.145 2.919524,-2.11305 4.651746,-2.72039 1.631459,-0.57133 3.304612,-1.09147 5.009235,-1.48079 z m -10.132282,11.87179 c -2.039193,1.84586 -4.112964,3.66655 -6.174528,5.49563 -0.08146,0.0721 -0.184256,0.12742 -0.393946,0.27071 -0.213485,-0.35984 -0.388357,-0.6291 -0.535747,-0.90758 -1.758535,-3.3266 -2.618483,-6.80466 -2.564579,-10.43415 0.01808,-1.21682 0.239445,-2.40925 0.705109,-3.5672 0.06723,-0.16685 0.162988,-0.32532 0.208831,-0.41671 2.843152,-0.16748 5.607944,-0.32999 8.504008,-0.50081 -0.241291,0.20957 -0.445904,0.38308 -0.643409,0.55995 -0.978359,0.87766 -1.071472,1.80681 -0.104262,2.68352 0.598024,0.54281 1.357898,0.97834 2.100484,1.39457 0.666296,0.37343 1.408956,0.65381 2.16888,0.99876 -0.05403,0.17021 -0.08465,0.34296 -0.162066,0.49976 -0.726334,1.47485 -1.819904,2.75667 -3.108775,3.92354 z m 7.86379,1.64245 c -0.308324,-0.0328 -0.612519,-0.0933 -0.914697,-0.15464 -0.111916,-0.0225 -0.213639,-0.0831 -0.40083,-0.1595 0.143644,-0.30183 0.24456,-0.59448 0.415636,-0.85606 0.530602,-0.81494 1.066287,-1.62819 1.638594,-2.42298 1.712846,-2.37515 4.128474,-4.12191 7.204125,-5.18999 1.862486,-0.64671 3.809338,-1.12734 5.716552,-1.6885 1.55203,-0.45646 3.101011,-0.9213 4.841319,-1.43891 0.4791,0.30209 1.10166,0.64866 1.65702,1.05644 0.45975,0.33729 0.8411,0.74751 1.26623,1.13344 -0.006,0.025 -0.002,0.0839 -0.0327,0.12326 -1.83695,2.30214 -3.777651,4.53632 -6.221861,6.43905 -2.173422,1.69151 -4.717891,2.73882 -7.708663,3.04379 -2.485016,0.25401 -4.967931,0.38222 -7.460796,0.11461 z m 15.670797,-0.73964 c 1.338699,-1.10814 2.612312,-2.28508 3.766912,-3.52411 1.46004,-1.56766 2.77056,-3.2293 4.2032,-4.91857 0.20656,-0.0108 0.51389,-0.0451 0.82017,-0.0408 1.30756,0.0149 2.61614,0.0102 3.91959,0.0769 0.57185,0.0298 1.13141,0.21341 1.77138,0.34198 -1.34154,2.55559 -2.58021,4.94182 -4.61747,6.97134 -0.92038,0.91709 -1.93127,1.75281 -3.1171,2.43332 -2.58644,1.48421 -5.174907,2.96591 -7.779644,4.42663 -0.64126,0.35952 -1.330319,0.67542 -2.036655,0.941 -0.794879,0.29911 -1.158092,0.20165 -1.715403,-0.35706 -0.25629,-0.2567 -0.511538,-0.53019 -0.67418,-0.82964 -0.493012,-0.91008 -0.941238,-1.83775 -1.44438,-2.83254 0.412159,-0.0913 0.694071,-0.17334 0.985116,-0.21429 2.283571,-0.32453 4.295731,-1.13052 5.918464,-2.47421 z m -24.116593,65.21326 c 0.935639,-0.91122 1.885526,-1.82495 2.990011,-2.61368 2.301609,-1.64365 4.973296,-2.72949 7.874759,-3.4538 0.794818,-0.19848 1.5987,-0.21829 2.408605,-0.0922 4.286606,0.66412 8.752395,2.99043 11.582467,6.22351 -4.093857,5.9174 -8.211136,11.86833 -12.417012,17.94753 -4.183897,-6.05804 -8.284416,-11.99612 -12.43883,-18.01138 z"
       id="path140"
       style="stroke-width:0.923761" />
  </g>
</svg>
